<?xml version="1.0" encoding="UTF-8" standalone="no"?>
<!DOCTYPE svg PUBLIC "-//W3C//DTD SVG 1.1//EN" "http://www.w3.org/Graphics/SVG/1.1/DTD/svg11.dtd">
<svg width="100%" height="100%" viewBox="0 0 448 1482" version="1.1" xmlns="http://www.w3.org/2000/svg" xmlns:xlink="http://www.w3.org/1999/xlink" xml:space="preserve" xmlns:serif="http://www.serif.com/" style="fill-rule:evenodd;clip-rule:evenodd;stroke-linejoin:round;stroke-miterlimit:2;">
    <g transform="matrix(1,0,0,1,-391.658,-607.004)">
        <g transform="matrix(0.605341,0,0,0.605341,154.563,1095.76)">
            <path d="M391.672,112.832L391.672,333.832C391.672,333.832 391.672,299.014 391.672,791.733C391.672,1195.95 395.581,1640.23 883.348,1640.23C1047.03,1640.23 1130.98,1585.66 1130.98,1405.46C1130.98,1225.83 949.331,1193.27 883.348,1180.05C498.157,1102.9 442.246,-59.894 424.416,-534.332C420.307,-643.685 391.629,-737.97 391.672,-805.377C391.704,-857.479 391.672,112.832 391.672,112.832Z"/>
        </g>
    </g>
</svg>
